HIERARCHY
ROOT hip
{
  OFFSET 0 0 0
  CHANNELS 6 Xposition Yposition Zposition Zrotation Yrotation Xrotation
  JOINT abdomen
  {
    OFFSET 0 20.6881 -0.73152
    CHANNELS 3 Zrotation Xrotation Yrotation
    JOINT chest
    {
      OFFSET 0 11.7043 -0.48768
      CHANNELS 3 Zrotation Xrotation Yrotation
      JOINT neck
      {
        OFFSET 0 22.1894 -2.19456
        CHANNELS 3 Zrotation Xrotation Yrotation
        JOINT head
        {
          OFFSET -0.24384 7.07133 1.2192
          CHANNELS 3 Zrotation Xrotation Yrotation
          JOINT leftEye
          {
            OFFSET 4.14528 8.04674 8.04672
            CHANNELS 3 Zrotation Xrotation Yrotation
            End Site
            {
              OFFSET 1 0 0
            }
          }
          JOINT rightEye
          {
            OFFSET -3.6576 8.04674 8.04672
            CHANNELS 3 Zrotation Xrotation Yrotation
            End Site
            {
              OFFSET 1 0 0
            }
          }
        }
      }
      JOINT rCollar
      {
        OFFSET -2.68224 19.2634 -4.8768
        CHANNELS 3 Zrotation Xrotation Yrotation
        JOINT rShldr
        {
          OFFSET -8.77824 -1.95073 1.46304
          CHANNELS 3 Zrotation Xrotation Yrotation
          JOINT rForeArm
          {
            OFFSET -28.1742 -1.7115 0.48768
            CHANNELS 3 Zrotation Xrotation Yrotation
            JOINT rHand
            {
              OFFSET -22.5879 0.773209 7.07136
              CHANNELS 3 Zrotation Xrotation Yrotation
              JOINT rThumb1
              {
                OFFSET -1.2192 -0.487915 3.41376
                CHANNELS 3 Zrotation Xrotation Yrotation
                JOINT rThumb2
                {
                  OFFSET -3.37035 -0.52449 3.41376
                  CHANNELS 3 Zrotation Xrotation Yrotation
                  End Site
                  {
                    OFFSET -1.78271 -1.18214 1.43049
                  }
                }
              }
              JOINT rIndex1
              {
                OFFSET -7.75947 0.938293 5.60832
                CHANNELS 3 Zrotation Xrotation Yrotation
                JOINT rIndex2
                {
                  OFFSET -2.54057 -0.884171 1.56538
                  CHANNELS 3 Zrotation Xrotation Yrotation
                  End Site
                  {
                    OFFSET -1.62519 -0.234802 1.16502
                  }
                }
              }
              JOINT rMid1
              {
                OFFSET -8.24714 1.18213 3.41376
                CHANNELS 3 Zrotation Xrotation Yrotation
                JOINT rMid2
                {
                  OFFSET -3.10165 -0.590103 1.0647
                  CHANNELS 3 Zrotation Xrotation Yrotation
                  End Site
                  {
                    OFFSET -2.48547 -0.328903 0.83742
                  }
                }
              }
              JOINT rRing1
              {
                OFFSET -8.82822 0.546677 1.51678
                CHANNELS 3 Zrotation Xrotation Yrotation
                JOINT rRing2
                {
                  OFFSET -2.60934 -0.819778 -0.0198488
                  CHANNELS 3 Zrotation Xrotation Yrotation
                  End Site
                  {
                    OFFSET -2.33842 -0.294052 0.168128
                  }
                }
              }
              JOINT rPinky1
              {
                OFFSET -8.27202 -0.0477905 -0.4584
                CHANNELS 3 Zrotation Xrotation Yrotation
                JOINT rPinky2
                {
                  OFFSET -1.82734 -0.647385 -0.700984
                  CHANNELS 3 Zrotation Xrotation Yrotation
                  End Site
                  {
                    OFFSET -1.69225 -0.51767 -0.607171
                  }
                }
              }
            }
          }
        }
      }
      JOINT lCollar
      {
        OFFSET 2.68224 19.2634 -4.8768
        CHANNELS 3 Zrotation Xrotation Yrotation
        JOINT lShldr
        {
          OFFSET 8.77824 -1.95073 1.46304
          CHANNELS 3 Zrotation Xrotation Yrotation
          JOINT lForeArm
          {
            OFFSET 28.1742 -1.7115 0.48768
            CHANNELS 3 Zrotation Xrotation Yrotation
            JOINT lHand
            {
              OFFSET 22.5879 0.773209 7.07136
              CHANNELS 3 Zrotation Xrotation Yrotation
              JOINT lThumb1
              {
                OFFSET 1.2192 -0.487915 3.41376
                CHANNELS 3 Zrotation Xrotation Yrotation
                JOINT lThumb2
                {
                  OFFSET 3.37035 -0.52449 3.41376
                  CHANNELS 3 Zrotation Xrotation Yrotation
                  End Site
                  {
                    OFFSET 1.78271 -1.18214 1.43049
                  }
                }
              }
              JOINT lIndex1
              {
                OFFSET 7.75947 0.938293 5.60832
                CHANNELS 3 Zrotation Xrotation Yrotation
                JOINT lIndex2
                {
                  OFFSET 2.54057 -0.884171 1.56538
                  CHANNELS 3 Zrotation Xrotation Yrotation
                  End Site
                  {
                    OFFSET 1.62519 -0.234802 1.16502
                  }
                }
              }
              JOINT lMid1
              {
                OFFSET 8.24714 1.18213 3.41376
                CHANNELS 3 Zrotation Xrotation Yrotation
                JOINT lMid2
                {
                  OFFSET 3.10165 -0.590103 1.0647
                  CHANNELS 3 Zrotation Xrotation Yrotation
                  End Site
                  {
                    OFFSET 2.48547 -0.328903 0.83742
                  }
                }
              }
              JOINT lRing1
              {
                OFFSET 8.82822 0.546677 1.51678
                CHANNELS 3 Zrotation Xrotation Yrotation
                JOINT lRing2
                {
                  OFFSET 2.60934 -0.819778 -0.0198488
                  CHANNELS 3 Zrotation Xrotation Yrotation
                  End Site
                  {
                    OFFSET 2.33842 -0.294052 0.168128
                  }
                }
              }
              JOINT lPinky1
              {
                OFFSET 8.27202 -0.0477905 -0.4584
                CHANNELS 3 Zrotation Xrotation Yrotation
                JOINT lPinky2
                {
                  OFFSET 1.82734 -0.647385 -0.700984
                  CHANNELS 3 Zrotation Xrotation Yrotation
                  End Site
                  {
                    OFFSET 1.69225 -0.51767 -0.607171
                  }
                }
              }
            }
          }
        }
      }
    }
  }
  JOINT rButtock
  {
    OFFSET -8.77824 4.35084 1.2192
    CHANNELS 3 Zrotation Xrotation Yrotation
    JOINT rThigh
    {
      OFFSET 0 -1.70687 -2.19456
      CHANNELS 3 Zrotation Xrotation Yrotation
      JOINT rShin
      {
        OFFSET 0 -36.8199 0.73152
        CHANNELS 3 Zrotation Xrotation Yrotation
        JOINT rFoot
        {
          OFFSET 0.73152 -45.1104 -5.12064
          CHANNELS 3 Zrotation Xrotation Yrotation
          End Site
          {
            OFFSET -1.1221 -3.69964 12.103
          }
        }
      }
    }
  }
  JOINT lButtock
  {
    OFFSET 8.77824 4.35084 1.2192
    CHANNELS 3 Zrotation Xrotation Yrotation
    JOINT lThigh
    {
      OFFSET 0 -1.70687 -2.19456
      CHANNELS 3 Zrotation Xrotation Yrotation
      JOINT lShin
      {
        OFFSET 0 -36.8199 0.73152
        CHANNELS 3 Zrotation Xrotation Yrotation
        JOINT lFoot
        {
          OFFSET -0.73152 -45.1104 -5.12064
          CHANNELS 3 Zrotation Xrotation Yrotation
          End Site
          {
            OFFSET 1.1221 -3.69964 12.103
          }
        }
      }
    }
  }
}
MOTION
Frames:	4
Frame Time:	0.03333
0.009885097998006735 35.575528650537066 0.025029481677562956 -2.916733503341675 6.584612846374512 4.680505752563477 -2.2608988285064697 14.865490913391113 3.8094191551208496 2.6513216495513916 -9.76373291015625 1.1872557401657104 -5.104187488555908 15.6334228515625 -3.5567786693573 9.086996078491211 -26.307329177856445 -5.187008857727051 -0.02741266041994095 -0.03537392243742943 -0.0012673725141212344 -0.020230555906891823 -0.023157553747296333 0.024230170994997025 -0.005985456518828869 -0.012651532888412476 -0.004255485720932484 46.50175476074219 36.06005859375 17.5626220703125 -28.117605209350586 -32.174129486083984 62.89440155029297 -1.5833289623260498 -11.27404499053955 -1.6670886278152466 -0.015992296859622 -0.01091579720377922 -0.03555237501859665 0.013098351657390594 0.017548443749547005 0.004974604118615389 -0.008168797008693218 0.02568558230996132 0.022770680487155914 7.756522178649902 5.44759464263916 0.46703314781188965 0.019464511424303055 0.01741630770266056 0.004439770244061947 2.911533832550049 0.9731019139289856 0.12565258145332336 0.006878517102450132 -0.03816461190581322 -0.032477010041475296 10.27121353149414 0.7528609037399292 -0.004389777779579163 -0.020786700770258904 -0.01822403259575367 -0.01926971599459648 2.215017318725586 -0.7357986569404602 -0.19005624949932098 0.004484034143388271 -0.035538505762815475 -0.011716003529727459 -52.48993682861328 39.18390655517578 -29.211416244506836 27.47047996520996 -30.453540802001953 -59.00065231323242 1.8779311180114746 -13.711480140686035 1.9792506694793701 0.06251198053359985 0.015325789339840412 0.028928004205226898 -0.0058901505544781685 0.015807438641786575 -0.02020014449954033 0.007158203981816769 0.0026411244180053473 -0.004828255623579025 -7.717666149139404 5.48856258392334 -0.4288855791091919 -0.018319888040423393 -0.014955522492527962 -0.014112899079918861 -2.892836093902588 0.9537699222564697 -0.10773991793394089 0.001750301569700241 0.0017575977835804224 -0.03519763424992561 -10.260004043579102 0.7302017211914062 -0.013886729255318642 0.0387672558426857 0.025737976655364037 0.008907477371394634 -2.2291295528411865 -0.7244294285774231 0.19798323512077332 -0.0027306529227644205 0.0023005385883152485 0.015200703404843807 -27.602252960205078 -38.71535110473633 -23.37460708618164 -1.6603679656982422 65.27388763427734 2.770209550857544 -4.8148512840271 -10.676836967468262 -10.384182929992676 0.005001137498766184 -0.022038012742996216 0.02520882897078991 33.69248580932617 -38.14261245727539 26.654460906982422 1.816057562828064 66.12899780273438 -2.8932595252990723 4.990887641906738 -10.557877540588379 13.623746871948242
0.01718902481998334 35.743578624876065 0.08886579036225084 -3.168808937072754 6.4199347496032715 4.651928901672363 -2.156834125518799 14.93266773223877 3.770881175994873 2.6193244457244873 -9.792115211486816 1.2522143125534058 -5.091403484344482 15.645383834838867 -3.4611942768096924 9.068831443786621 -26.27000617980957 -5.156545162200928 -0.014476418495178223 0.022531704977154732 -0.0005865221610292792 -0.06140323728322983 0.007089507300406694 0.036260321736335754 -0.044042039662599564 0.037692271173000336 -0.10021897405385971 46.08440017700195 35.853233337402344 18.017074584960938 -28.19624137878418 -32.1546630859375 62.54304122924805 -1.6010476350784302 -11.48189640045166 -1.7139617204666138 -0.027790775522589684 0.02097957395017147 -0.04467329382896423 0.015690598636865616 0.025249863043427467 -0.007316800765693188 -0.01436541136354208 0.009784222580492496 0.036328259855508804 7.7295026779174805 5.449569225311279 0.427188515663147 0.009661683812737465 0.009898457676172256 0.0408637672662735 2.927328109741211 0.9893364310264587 0.05565640330314636 0.04675703123211861 -0.05284177511930466 -0.0495465025305748 10.255769729614258 0.7771760821342468 -0.0898725837469101 -0.006381130311638117 -0.042343005537986755 -0.03636568412184715 2.1178340911865234 -0.7687191963195801 -0.18801024556159973 0.013464326038956642 -0.03111259639263153 0.017172817140817642 -52.20455551147461 38.68219757080078 -29.527250289916992 27.486602783203125 -30.57596778869629 -58.908199310302734 1.9545950889587402 -14.025189399719238 2.0697827339172363 0.1242838129401207 0.043670766055583954 0.03715568035840988 -0.005912927445024252 -0.04885927960276604 -0.04398983344435692 -0.041916847229003906 -0.0578489787876606 -0.05033526197075844 -7.764102935791016 5.493172645568848 -0.44571632146835327 -0.08020292222499847 -0.00619183573871851 -0.02865065447986126 -2.89341402053833 1.0045461654663086 -0.0987556204199791 0.0296084713190794 -0.018947871401906013 -0.1472933143377304 -10.262116432189941 0.7216294407844543 0.08266547322273254 -0.004007574636489153 0.06874681264162064 0.02906968630850315 -2.2094767093658447 -0.7122437357902527 0.19243095815181732 -0.07964163273572922 -0.04395485669374466 -0.02631562203168869 -27.967451095581055 -38.726776123046875 -23.504196166992188 -1.6798303127288818 65.24986267089844 2.7643563747406006 -4.703579902648926 -10.731718063354492 -10.317304611206055 0.07181073725223541 0.020863860845565796 0.007063963450491428 34.064453125 -38.35734939575195 26.76393699645996 1.8201977014541626 66.17534637451172 -2.89607310295105 4.8997321128845215 -10.521234512329102 13.58526611328125
0.2718483591556775 36.80591892762317 0.09577734149270872 7.613727569580078 27.38213539123535 7.7727813720703125 -11.964608192443848 14.582541465759277 5.7814860343933105 2.4440972805023193 -10.396880149841309 1.6800650358200073 -7.137341022491455 15.333950996398926 -7.4166741371154785 8.508135795593262 -27.578876495361328 -13.673859596252441 -0.17104439437389374 0.2500533163547516 -0.14248257875442505 0.11768665909767151 -0.11323908716440201 0.29829010367393494 -0.11215831339359283 -0.23085984587669373 -0.33355361223220825 16.893230438232422 7.656021595001221 57.25494384765625 -24.779821395874023 -24.058408737182617 50.523765563964844 -0.19060325622558594 13.752264022827148 2.386664628982544 -0.0466533787548542 0.08415590226650238 -0.012122884392738342 0.011046641506254673 -0.1987854689359665 0.32071855664253235 0.12904013693332672 0.17092262208461761 0.19797711074352264 7.773437976837158 5.274712085723877 0.4259384870529175 0.27899613976478577 -0.09112051129341125 0.1555858552455902 2.791863441467285 1.1271458864212036 0.09986709803342819 -0.1445995718240738 -0.16811822354793549 -0.20808932185173035 10.583558082580566 0.7022560238838196 -0.09848123043775558 0.1675831377506256 -0.11470682919025421 -0.294784277677536 1.8425250053405762 -0.8286152482032776 -0.1790734827518463 0.16507259011268616 -0.4147717356681824 -0.15391655266284943 -84.25928497314453 58.437747955322266 12.075081825256348 27.772377014160156 -39.3533821105957 -83.01513671875 3.08414626121521 -45.92219924926758 8.257835388183594 0.17689429223537445 -0.23632808029651642 0.12260394543409348 0.40599524974823 0.09247849881649017 -0.16916672885417938 -0.07939272373914719 -0.11536603420972824 -0.13481460511684418 -7.714773178100586 5.597997188568115 -0.3597676157951355 -0.24569466710090637 -0.24837073683738708 0.2668692171573639 -2.7055864334106445 0.8788458704948425 -0.19849316775798798 0.33336323499679565 0.0598844550549984 -0.28776317834854126 -10.149223327636719 0.6855892539024353 0.012658236548304558 0.05560506507754326 -0.012057355605065823 0.16936959326267242 -2.519305467605591 -0.4317874312400818 0.0744226947426796 0.08621276170015335 0.10924265533685684 0.14980176091194153 -51.96666717529297 -60.334739685058594 -48.66433334350586 -3.390911102294922 74.87422943115234 3.713301658630371 -1.322671890258789 -2.581936836242676 -2.9502108097076416 -0.016265789046883583 0.22889451682567596 0.1859484761953354 8.103167533874512 -10.333908081054688 2.341519832611084 0.7455202341079712 46.75981903076172 -2.661921262741089 9.228769302368164 -13.658740997314453 28.956748962402344
0.3347644332518384 37.78544660177845 -0.30005319844642203 8.28938102722168 30.030458450317383 9.28591537475586 -10.868983268737793 15.55250358581543 7.702879428863525 0.222288578748703 -10.358668327331543 2.0930063724517822 -5.417186737060547 12.622796058654785 -4.143152236938477 5.636458873748779 -27.98813247680664 -5.7029242515563965 -0.1297394037246704 0.306853711605072 -0.10417120903730392 -0.2975519299507141 -0.029330674558877945 -0.23061785101890564 0.24235990643501282 -0.20529721677303314 -0.39041873812675476 2.790043830871582 4.250964641571045 65.77851867675781 -26.947986602783203 -26.786958694458008 58.08024978637695 0.08586560934782028 10.746784210205078 1.4310393333435059 -0.10191255062818527 0.434336394071579 0.26046672463417053 -0.3014392554759979 0.5085132122039795 -0.00309943500906229 -0.10748452693223953 0.3111690282821655 0.12937049567699432 7.736880779266357 5.251456260681152 0.03910434618592262 0.2147379368543625 0.16112929582595825 0.10728596895933151 2.7280030250549316 1.310961127281189 -0.040730416774749756 -0.18641668558120728 -0.22668655216693878 -0.3825125992298126 10.352505683898926 0.4113248586654663 0.36735469102859497 -0.06018740311264992 -0.23786219954490662 -0.533787190914154 1.9198497533798218 -1.0174741744995117 -0.0045565711334347725 -0.001833784976042807 -0.2825899124145508 0.2702295482158661 -77.62252807617188 59.972713470458984 6.126542091369629 28.93783950805664 -38.860321044921875 -78.32699584960938 2.8331406116485596 -43.446781158447266 7.460606575012207 -0.19543085992336273 -0.0670633316040039 -0.21616080403327942 0.16718177497386932 -0.17578640580177307 0.23680350184440613 0.17745840549468994 -0.0059497784823179245 -0.1436164379119873 -7.965133190155029 5.414026737213135 -0.5433219075202942 -0.20410895347595215 0.16953718662261963 0.24284501373767853 -2.5643370151519775 0.7377269268035889 0.12360253930091858 0.46308454871177673 0.36765241622924805 0.11979604512453079 -10.255867958068848 0.7230852842330933 0.04743986204266548 -0.2410680204629898 0.19676640629768372 -0.2887725532054901 -2.3126044273376465 -0.7457922697067261 0.4662497043609619 0.17662224173545837 0.0459069088101387 -0.16285587847232819 -49.696590423583984 -62.856956481933594 -48.63182830810547 -4.561361312866211 75.43184661865234 5.223064422607422 -3.3410909175872803 -3.0924935340881348 -10.55968189239502 0.2136707901954651 -0.03981269523501396 -0.1270987093448639 7.1209893226623535 -7.38271951675415 -1.3411692380905151 0.5292288064956665 43.49907302856445 -1.9639610052108765 7.017971992492676 -9.957656860351562 25.78702735900879
